<?xml version="1.0" encoding="UTF-8" standalone="no"?>
<!DOCTYPE svg PUBLIC "-//W3C//DTD SVG 1.1//EN" "http://www.w3.org/Graphics/SVG/1.1/DTD/svg11.dtd">
<svg width="100%" height="100%" viewBox="0 0 130 50" version="1.1" xmlns="http://www.w3.org/2000/svg" xmlns:xlink="http://www.w3.org/1999/xlink" xml:space="preserve" xmlns:serif="http://www.serif.com/" style="fill-rule:evenodd;clip-rule:evenodd;stroke-linejoin:round;stroke-miterlimit:2;">
    <g transform="matrix(1,0,0,1,-5,-5)">
        <path d="M13.3,126.4L13.3,37.4C13.3,35 14.2,32.9 15.9,31.1C17.6,29.3 19.7,28.5 22.1,28.5L30.9,28.5L30.9,21.8C30.9,18.7 32,16.1 34.1,13.9C36.3,11.7 38.8,10.6 41.9,10.6L46.3,10.6C49.3,10.6 51.9,11.7 54.1,13.9C56.3,16.1 57.3,18.7 57.3,21.8L57.3,28.5L83.7,28.5L83.7,21.8C83.7,18.7 84.8,16.1 86.9,13.9C89.1,11.7 91.6,10.6 94.7,10.6L99.1,10.6C102.1,10.6 104.7,11.7 106.9,13.9C109.1,16.1 110.1,18.7 110.1,21.8L110.1,28.5L118.9,28.5C121.3,28.5 123.3,29.4 125.1,31.1C126.8,32.9 127.7,34.9 127.7,37.4L127.7,126.3C127.7,128.7 126.8,130.8 125.1,132.6C123.4,134.4 121.3,135.2 118.9,135.2L22.1,135.2C19.7,135.2 17.7,134.3 15.9,132.6C14.2,130.8 13.3,128.8 13.3,126.4ZM22.1,126.4L118.9,126.4L118.9,55.2L22.1,55.2L22.1,126.4ZM39.7,41.9C39.7,42.5 39.9,43.1 40.3,43.5C40.7,43.9 41.2,44.1 41.9,44.1L46.3,44.1C46.9,44.1 47.5,43.9 47.9,43.5C48.3,43.1 48.5,42.6 48.5,41.9L48.5,21.9C48.5,21.3 48.3,20.7 47.9,20.3C47.5,19.9 47,19.7 46.3,19.7L41.9,19.7C41.3,19.7 40.7,19.9 40.3,20.3C39.9,20.7 39.7,21.3 39.7,21.9L39.7,41.9ZM92.5,41.9C92.5,42.5 92.7,43.1 93.1,43.5C93.5,43.9 94,44.1 94.7,44.1L99.1,44.1C99.7,44.1 100.3,43.9 100.7,43.5C101.1,43.1 101.3,42.6 101.3,41.9L101.3,21.9C101.3,21.3 101.1,20.7 100.7,20.3C100.3,19.9 99.8,19.7 99.1,19.7L94.7,19.7C94.1,19.7 93.5,19.9 93.1,20.3C92.7,20.7 92.5,21.3 92.5,21.9L92.5,41.9Z" style="fill:rgb(255,175,6);fill-rule:nonzero;"/>
    </g>
</svg>
